<svg width="57" height="56" viewBox="0 0 57 56" fill="none" xmlns="http://www.w3.org/2000/svg">
<g filter="url(#filter0_d_1191_141)">
<path d="M2.5 9C2.5 4.58172 6.08172 1 10.5 1H46.5C50.9183 1 54.5 4.58172 54.5 9V45C54.5 49.4183 50.9183 53 46.5 53H10.5C6.08172 53 2.5 49.4183 2.5 45V9Z" fill="white" shape-rendering="crispEdges"/>
<path d="M3 9C3 4.85786 6.35786 1.5 10.5 1.5H46.5C50.6421 1.5 54 4.85786 54 9V45C54 49.1421 50.6421 52.5 46.5 52.5H10.5C6.35786 52.5 3 49.1421 3 45V9Z" stroke="#EAECF0" shape-rendering="crispEdges"/>
<g filter="url(#filter1_d_1191_141)">
<path d="M7.5 20.9333C7.5 15.7062 7.5 13.0926 8.51727 11.0961C9.41209 9.33991 10.8399 7.91209 12.5961 7.01727C14.5926 6 17.2062 6 22.4333 6H34.5667C39.7938 6 42.4074 6 44.4039 7.01727C46.1601 7.91209 47.5879 9.33991 48.4827 11.0961C49.5 13.0926 49.5 15.7062 49.5 20.9333V33.0667C49.5 38.2938 49.5 40.9074 48.4827 42.9039C47.5879 44.6601 46.1601 46.0879 44.4039 46.9827C42.4074 48 39.7938 48 34.5667 48H22.4333C17.2062 48 14.5926 48 12.5961 46.9827C10.8399 46.0879 9.41209 44.6601 8.51727 42.9039C7.5 40.9074 7.5 38.2938 7.5 33.0667V20.9333Z" fill="white"/>
<path d="M28.5031 21.6764L23.3118 12.5148C23.4841 12.3393 23.6824 12.2242 23.8808 12.1469C22.3499 12.6507 21.6474 14.3698 21.6474 14.3698L12.1637 31.1022C12.0302 31.6268 11.9931 32.1004 12.0098 32.5174H22.361L28.5031 21.6764Z" fill="#34A853"/>
<path d="M28.5029 21.6764L34.645 32.5174H44.9961C45.0128 32.1004 44.9758 31.6268 44.8423 31.1022L35.3585 14.3698C35.3585 14.3698 34.6543 12.6507 33.1252 12.1469C33.3217 12.2242 33.5218 12.3393 33.6942 12.5148L28.5029 21.6764Z" fill="#FBBC05"/>
<path d="M28.5029 21.6768L33.6942 12.5152C33.5219 12.3397 33.3217 12.2246 33.1253 12.1472C32.8991 12.0736 32.6563 12.0246 32.3932 12.0114H32.1189H24.887H24.6127C24.3513 12.0227 24.1067 12.0717 23.8806 12.1472C23.6841 12.2246 23.4839 12.3397 23.3116 12.5152L28.5029 21.6768Z" fill="#188038"/>
<path d="M22.3627 32.5175L17.2306 41.5753C17.2306 41.5753 17.0601 41.4923 16.8284 41.3205C17.5568 41.881 18.2648 41.9999 18.2648 41.9999H38.4204C39.5324 41.9999 39.7641 41.5753 39.7641 41.5753C39.7678 41.5734 39.7696 41.5715 39.7733 41.5696L34.645 32.5175H22.3627Z" fill="#4285F4"/>
<path d="M22.3631 32.5175H12.0119C12.0638 33.7478 12.5976 34.4668 12.5976 34.4668L12.9868 35.1424C13.0146 35.182 13.0313 35.2046 13.0313 35.2046L13.8783 36.6916L15.7798 40.0015C15.8354 40.1355 15.9003 40.2581 15.9689 40.3751C15.9948 40.4147 16.0189 40.4582 16.0467 40.4959C16.0541 40.5072 16.0615 40.5185 16.069 40.5299C16.3043 40.862 16.5675 41.1186 16.8307 41.3205C17.0624 41.4941 17.2329 41.5753 17.2329 41.5753L22.3631 32.5175Z" fill="#1967D2"/>
<path d="M34.645 32.5175H44.9962C44.9443 33.7478 44.4105 34.4668 44.4105 34.4668L44.0213 35.1424C43.9935 35.182 43.9768 35.2046 43.9768 35.2046L43.1298 36.6916L41.2282 40.0015C41.1726 40.1355 41.1078 40.2581 41.0392 40.3751C41.0132 40.4147 40.9891 40.4582 40.9613 40.4959C40.9539 40.5072 40.9465 40.5185 40.9391 40.5299C40.7037 40.862 40.4405 41.1186 40.1774 41.3205C39.9457 41.4941 39.7752 41.5753 39.7752 41.5753L34.645 32.5175Z" fill="#EA4335"/>
</g>
</g>
<defs>
<filter id="filter0_d_1191_141" x="0.5" y="0" width="56" height="56" filterUnits="userSpaceOnUse" color-interpolation-filters="sRGB">
<feFlood flood-opacity="0" result="BackgroundImageFix"/>
<feColorMatrix in="SourceAlpha" type="matrix" values="0 0 0 0 0 0 0 0 0 0 0 0 0 0 0 0 0 0 127 0" result="hardAlpha"/>
<feOffset dy="1"/>
<feGaussianBlur stdDeviation="1"/>
<feComposite in2="hardAlpha" operator="out"/>
<feColorMatrix type="matrix" values="0 0 0 0 0.0627451 0 0 0 0 0.0941176 0 0 0 0 0.156863 0 0 0 0.05 0"/>
<feBlend mode="normal" in2="BackgroundImageFix" result="effect1_dropShadow_1191_141"/>
<feBlend mode="normal" in="SourceGraphic" in2="effect1_dropShadow_1191_141" result="shape"/>
</filter>
<filter id="filter1_d_1191_141" x="2.5" y="2" width="52" height="52" filterUnits="userSpaceOnUse" color-interpolation-filters="sRGB">
<feFlood flood-opacity="0" result="BackgroundImageFix"/>
<feColorMatrix in="SourceAlpha" type="matrix" values="0 0 0 0 0 0 0 0 0 0 0 0 0 0 0 0 0 0 127 0" result="hardAlpha"/>
<feOffset dy="1"/>
<feGaussianBlur stdDeviation="1"/>
<feComposite in2="hardAlpha" operator="out"/>
<feColorMatrix type="matrix" values="0 0 0 0 0.0627451 0 0 0 0 0.0941176 0 0 0 0 0.156863 0 0 0 0.05 0"/>
<feBlend mode="normal" in2="BackgroundImageFix" result="effect1_dropShadow_1191_141"/>
<feBlend mode="normal" in="SourceGraphic" in2="effect1_dropShadow_1191_141" result="shape"/>
</filter>
</defs>
</svg>
