<svg width="57" height="56" viewBox="0 0 57 56" fill="none" xmlns="http://www.w3.org/2000/svg">
<g filter="url(#filter0_d_1191_989)">
<path d="M2.5 9C2.5 4.58172 6.08172 1 10.5 1H46.5C50.9183 1 54.5 4.58172 54.5 9V45C54.5 49.4183 50.9183 53 46.5 53H10.5C6.08172 53 2.5 49.4183 2.5 45V9Z" fill="white" shape-rendering="crispEdges"/>
<path d="M3 9C3 4.85786 6.35786 1.5 10.5 1.5H46.5C50.6421 1.5 54 4.85786 54 9V45C54 49.1421 50.6421 52.5 46.5 52.5H10.5C6.35786 52.5 3 49.1421 3 45V9Z" stroke="#EAECF0" shape-rendering="crispEdges"/>
<g filter="url(#filter1_dd_1191_989)">
<circle cx="28.5" cy="27" r="21" fill="#0F287F"/>
<path fill-rule="evenodd" clip-rule="evenodd" d="M21 15L13.5 19.5L21 24L13.5 28.5L21 33L28.5 28.5L36 33L43.5 28.5L36 24L43.5 19.5L36 15L28.5 19.5L21 15ZM28.5 19.5L36 24L28.5 28.5L21 24L28.5 19.5Z" fill="#DAF8FE"/>
<path d="M21 36L28.5 31.5L36 36L28.5 40.5L21 36Z" fill="#DAF8FE"/>
</g>
</g>
<defs>
<filter id="filter0_d_1191_989" x="0.5" y="0" width="56" height="56" filterUnits="userSpaceOnUse" color-interpolation-filters="sRGB">
<feFlood flood-opacity="0" result="BackgroundImageFix"/>
<feColorMatrix in="SourceAlpha" type="matrix" values="0 0 0 0 0 0 0 0 0 0 0 0 0 0 0 0 0 0 127 0" result="hardAlpha"/>
<feOffset dy="1"/>
<feGaussianBlur stdDeviation="1"/>
<feComposite in2="hardAlpha" operator="out"/>
<feColorMatrix type="matrix" values="0 0 0 0 0.0627451 0 0 0 0 0.0941176 0 0 0 0 0.156863 0 0 0 0.05 0"/>
<feBlend mode="normal" in2="BackgroundImageFix" result="effect1_dropShadow_1191_989"/>
<feBlend mode="normal" in="SourceGraphic" in2="effect1_dropShadow_1191_989" result="shape"/>
</filter>
<filter id="filter1_dd_1191_989" x="1.5" y="1" width="54" height="54" filterUnits="userSpaceOnUse" color-interpolation-filters="sRGB">
<feFlood flood-opacity="0" result="BackgroundImageFix"/>
<feColorMatrix in="SourceAlpha" type="matrix" values="0 0 0 0 0 0 0 0 0 0 0 0 0 0 0 0 0 0 127 0" result="hardAlpha"/>
<feOffset dy="1"/>
<feGaussianBlur stdDeviation="1"/>
<feComposite in2="hardAlpha" operator="out"/>
<feColorMatrix type="matrix" values="0 0 0 0 0.0627451 0 0 0 0 0.0941176 0 0 0 0 0.156863 0 0 0 0.06 0"/>
<feBlend mode="normal" in2="BackgroundImageFix" result="effect1_dropShadow_1191_989"/>
<feColorMatrix in="SourceAlpha" type="matrix" values="0 0 0 0 0 0 0 0 0 0 0 0 0 0 0 0 0 0 127 0" result="hardAlpha"/>
<feOffset dy="1"/>
<feGaussianBlur stdDeviation="1.5"/>
<feComposite in2="hardAlpha" operator="out"/>
<feColorMatrix type="matrix" values="0 0 0 0 0.0627451 0 0 0 0 0.0941176 0 0 0 0 0.156863 0 0 0 0.1 0"/>
<feBlend mode="normal" in2="effect1_dropShadow_1191_989" result="effect2_dropShadow_1191_989"/>
<feBlend mode="normal" in="SourceGraphic" in2="effect2_dropShadow_1191_989" result="shape"/>
</filter>
</defs>
</svg>
