<svg width="375" height="344" viewBox="0 0 375 344" fill="none" xmlns="http://www.w3.org/2000/svg">
<g filter="url(#filter0_d_202_3940)">
<path d="M17 24C17 17.3726 22.3726 12 29 12H346C352.627 12 358 17.3726 358 24V272C358 278.627 352.627 284 346 284H29C22.3726 284 17 278.627 17 272V24Z" fill="white"/>
<path d="M17.5 24C17.5 17.6487 22.6487 12.5 29 12.5H346C352.351 12.5 357.5 17.6487 357.5 24V272C357.5 278.351 352.351 283.5 346 283.5H29C22.6487 283.5 17.5 278.351 17.5 272V24Z" stroke="#EAECF0"/>
<path d="M44.4226 36.8182H46.267V43.4702C46.267 44.1993 46.0947 44.8407 45.75 45.3942C45.4086 45.9477 44.928 46.3802 44.3082 46.6918C43.6884 47 42.9643 47.1541 42.1357 47.1541C41.3037 47.1541 40.5779 47 39.9581 46.6918C39.3383 46.3802 38.8577 45.9477 38.5163 45.3942C38.175 44.8407 38.0043 44.1993 38.0043 43.4702V36.8182H39.8487V43.3161C39.8487 43.7403 39.9415 44.1181 40.1271 44.4496C40.3161 44.781 40.5812 45.0412 40.9226 45.2301C41.264 45.4157 41.6683 45.5085 42.1357 45.5085C42.603 45.5085 43.0073 45.4157 43.3487 45.2301C43.6934 45.0412 43.9586 44.781 44.1442 44.4496C44.3298 44.1181 44.4226 43.7403 44.4226 43.3161V36.8182ZM54.2278 41.3821L52.5872 41.5611C52.5408 41.3954 52.4596 41.2396 52.3436 41.0938C52.2309 40.9479 52.0784 40.8303 51.8862 40.7408C51.694 40.6513 51.4586 40.6065 51.1802 40.6065C50.8057 40.6065 50.4908 40.6877 50.2356 40.8501C49.9837 41.0125 49.8594 41.223 49.8627 41.4815C49.8594 41.7036 49.9406 41.8842 50.1064 42.0234C50.2754 42.1626 50.5538 42.277 50.9416 42.3665L52.2441 42.6449C52.9667 42.8007 53.5036 43.0476 53.8549 43.3857C54.2096 43.7237 54.3886 44.1662 54.3919 44.7131C54.3886 45.1937 54.2477 45.6179 53.9693 45.9858C53.6942 46.3504 53.3114 46.6354 52.8208 46.8409C52.3303 47.0464 51.7669 47.1491 51.1305 47.1491C50.1958 47.1491 49.4435 46.9536 48.8734 46.5625C48.3033 46.1681 47.9636 45.6196 47.8542 44.9169L49.6092 44.7479C49.6887 45.0926 49.8578 45.3527 50.1163 45.5284C50.3748 45.7041 50.7112 45.7919 51.1255 45.7919C51.5531 45.7919 51.8961 45.7041 52.1547 45.5284C52.4165 45.3527 52.5474 45.1357 52.5474 44.8771C52.5474 44.6584 52.4629 44.4777 52.2939 44.3352C52.1281 44.1927 51.8696 44.0833 51.5183 44.0071L50.2157 43.7337C49.4833 43.5812 48.9413 43.3243 48.59 42.9631C48.2387 42.5985 48.0647 42.1378 48.068 41.581C48.0647 41.1103 48.1923 40.7027 48.4508 40.358C48.7127 40.0099 49.0756 39.7415 49.5396 39.5526C50.0069 39.3603 50.5455 39.2642 51.1554 39.2642C52.0502 39.2642 52.7546 39.4548 53.2683 39.8359C53.7853 40.2171 54.1052 40.7325 54.2278 41.3821ZM59.2566 47.1491C58.4909 47.1491 57.8297 46.9901 57.2729 46.6719C56.7194 46.3504 56.2935 45.8963 55.9952 45.3097C55.6969 44.7197 55.5478 44.0253 55.5478 43.2266C55.5478 42.4411 55.6969 41.7517 55.9952 41.1584C56.2968 40.5618 56.7177 40.0978 57.258 39.7663C57.7982 39.4316 58.4329 39.2642 59.1621 39.2642C59.6328 39.2642 60.0769 39.3404 60.4945 39.4929C60.9154 39.642 61.2866 39.8741 61.6081 40.1889C61.9329 40.5038 62.1882 40.9048 62.3738 41.392C62.5594 41.8759 62.6522 42.4527 62.6522 43.1222V43.674H56.3929V42.4609H60.927C60.9237 42.1162 60.8491 41.8097 60.7033 41.5412C60.5575 41.2694 60.3536 41.0556 60.0918 40.8999C59.8333 40.7441 59.5317 40.6662 59.187 40.6662C58.8191 40.6662 58.4959 40.7557 58.2175 40.9347C57.9391 41.1103 57.722 41.3423 57.5662 41.6307C57.4138 41.9157 57.3359 42.2289 57.3326 42.5703V43.6293C57.3326 44.0734 57.4138 44.4545 57.5762 44.7727C57.7386 45.0876 57.9656 45.3295 58.2573 45.4986C58.5489 45.6643 58.8903 45.7472 59.2814 45.7472C59.5433 45.7472 59.7802 45.7107 59.9924 45.6378C60.2045 45.5616 60.3884 45.4505 60.5442 45.3047C60.7 45.1589 60.8176 44.9782 60.8972 44.7628L62.5776 44.9517C62.4715 45.3958 62.2694 45.7836 61.9711 46.1151C61.6761 46.4432 61.2982 46.6984 60.8375 46.8807C60.3768 47.0597 59.8498 47.1491 59.2566 47.1491ZM64.1747 47V39.3636H65.9197V40.6364H65.9993C66.1385 40.1955 66.3771 39.8558 66.7152 39.6172C67.0566 39.3752 67.446 39.2543 67.8835 39.2543C67.983 39.2543 68.094 39.2592 68.2166 39.2692C68.3426 39.2758 68.447 39.2874 68.5298 39.304V40.9595C68.4536 40.933 68.3326 40.9098 68.1669 40.8899C68.0045 40.8667 67.8471 40.8551 67.6946 40.8551C67.3665 40.8551 67.0715 40.9264 66.8097 41.0689C66.5511 41.2081 66.3473 41.402 66.1982 41.6506C66.049 41.8991 65.9744 42.1858 65.9744 42.5107V47H64.1747ZM75.761 41.3821L74.1204 41.5611C74.074 41.3954 73.9928 41.2396 73.8768 41.0938C73.7641 40.9479 73.6116 40.8303 73.4194 40.7408C73.2272 40.6513 72.9918 40.6065 72.7134 40.6065C72.3389 40.6065 72.024 40.6877 71.7688 40.8501C71.5169 41.0125 71.3926 41.223 71.396 41.4815C71.3926 41.7036 71.4738 41.8842 71.6396 42.0234C71.8086 42.1626 72.087 42.277 72.4748 42.3665L73.7773 42.6449C74.4999 42.8007 75.0368 43.0476 75.3881 43.3857C75.7428 43.7237 75.9218 44.1662 75.9251 44.7131C75.9218 45.1937 75.7809 45.6179 75.5025 45.9858C75.2274 46.3504 74.8446 46.6354 74.354 46.8409C73.8635 47.0464 73.3001 47.1491 72.6637 47.1491C71.729 47.1491 70.9767 46.9536 70.4066 46.5625C69.8365 46.1681 69.4968 45.6196 69.3874 44.9169L71.1424 44.7479C71.2219 45.0926 71.391 45.3527 71.6495 45.5284C71.908 45.7041 72.2444 45.7919 72.6587 45.7919C73.0863 45.7919 73.4293 45.7041 73.6879 45.5284C73.9497 45.3527 74.0806 45.1357 74.0806 44.8771C74.0806 44.6584 73.9961 44.4777 73.8271 44.3352C73.6613 44.1927 73.4028 44.0833 73.0515 44.0071L71.7489 43.7337C71.0165 43.5812 70.4746 43.3243 70.1232 42.9631C69.7719 42.5985 69.5979 42.1378 69.6012 41.581C69.5979 41.1103 69.7255 40.7027 69.984 40.358C70.2459 40.0099 70.6088 39.7415 71.0728 39.5526C71.5401 39.3603 72.0787 39.2642 72.6886 39.2642C73.5835 39.2642 74.2878 39.4548 74.8015 39.8359C75.3185 40.2171 75.6384 40.7325 75.761 41.3821ZM84.2127 47.1491C83.467 47.1491 82.8207 46.9851 82.2738 46.657C81.7269 46.3288 81.3027 45.8698 81.0011 45.2798C80.7028 44.6899 80.5536 44.0005 80.5536 43.2116C80.5536 42.4228 80.7028 41.7318 81.0011 41.1385C81.3027 40.5452 81.7269 40.0845 82.2738 39.7564C82.8207 39.4283 83.467 39.2642 84.2127 39.2642C84.9585 39.2642 85.6048 39.4283 86.1516 39.7564C86.6985 40.0845 87.1211 40.5452 87.4194 41.1385C87.721 41.7318 87.8718 42.4228 87.8718 43.2116C87.8718 44.0005 87.721 44.6899 87.4194 45.2798C87.1211 45.8698 86.6985 46.3288 86.1516 46.657C85.6048 46.9851 84.9585 47.1491 84.2127 47.1491ZM84.2227 45.7074C84.627 45.7074 84.9651 45.5964 85.2369 45.3743C85.5086 45.1489 85.7108 44.8473 85.8434 44.4695C85.9793 44.0916 86.0472 43.6707 86.0472 43.2067C86.0472 42.7393 85.9793 42.3168 85.8434 41.9389C85.7108 41.5578 85.5086 41.2545 85.2369 41.0291C84.9651 40.8037 84.627 40.6911 84.2227 40.6911C83.8084 40.6911 83.4637 40.8037 83.1886 41.0291C82.9168 41.2545 82.7129 41.5578 82.5771 41.9389C82.4445 42.3168 82.3782 42.7393 82.3782 43.2067C82.3782 43.6707 82.4445 44.0916 82.5771 44.4695C82.7129 44.8473 82.9168 45.1489 83.1886 45.3743C83.4637 45.5964 83.8084 45.7074 84.2227 45.7074ZM95.9606 39.3636L93.2411 47H91.2525L88.533 39.3636H90.4521L92.207 45.0362H92.2866L94.0465 39.3636H95.9606ZM100.327 47.1491C99.5613 47.1491 98.9 46.9901 98.3432 46.6719C97.7897 46.3504 97.3638 45.8963 97.0655 45.3097C96.7672 44.7197 96.6181 44.0253 96.6181 43.2266C96.6181 42.4411 96.7672 41.7517 97.0655 41.1584C97.3671 40.5618 97.7881 40.0978 98.3283 39.7663C98.8685 39.4316 99.5033 39.2642 100.232 39.2642C100.703 39.2642 101.147 39.3404 101.565 39.4929C101.986 39.642 102.357 39.8741 102.678 40.1889C103.003 40.5038 103.258 40.9048 103.444 41.392C103.63 41.8759 103.722 42.4527 103.722 43.1222V43.674H97.4632V42.4609H101.997C101.994 42.1162 101.919 41.8097 101.774 41.5412C101.628 41.2694 101.424 41.0556 101.162 40.8999C100.904 40.7441 100.602 40.6662 100.257 40.6662C99.8894 40.6662 99.5662 40.7557 99.2878 40.9347C99.0094 41.1103 98.7923 41.3423 98.6365 41.6307C98.4841 41.9157 98.4062 42.2289 98.4029 42.5703V43.6293C98.4029 44.0734 98.4841 44.4545 98.6465 44.7727C98.8089 45.0876 99.0359 45.3295 99.3276 45.4986C99.6193 45.6643 99.9606 45.7472 100.352 45.7472C100.614 45.7472 100.851 45.7107 101.063 45.6378C101.275 45.5616 101.459 45.4505 101.615 45.3047C101.77 45.1589 101.888 44.9782 101.968 44.7628L103.648 44.9517C103.542 45.3958 103.34 45.7836 103.041 46.1151C102.746 46.4432 102.369 46.6984 101.908 46.8807C101.447 47.0597 100.92 47.1491 100.327 47.1491ZM105.245 47V39.3636H106.99V40.6364H107.07C107.209 40.1955 107.447 39.8558 107.786 39.6172C108.127 39.3752 108.516 39.2543 108.954 39.2543C109.053 39.2543 109.164 39.2592 109.287 39.2692C109.413 39.2758 109.517 39.2874 109.6 39.304V40.9595C109.524 40.933 109.403 40.9098 109.237 40.8899C109.075 40.8667 108.917 40.8551 108.765 40.8551C108.437 40.8551 108.142 40.9264 107.88 41.0689C107.621 41.2081 107.418 41.402 107.268 41.6506C107.119 41.8991 107.045 42.1858 107.045 42.5107V47H105.245ZM118.082 39.3636V40.7557H113.692V39.3636H118.082ZM114.776 37.5341H116.575V44.7031C116.575 44.9451 116.612 45.1307 116.685 45.2599C116.761 45.3859 116.86 45.4721 116.983 45.5185C117.106 45.5649 117.241 45.5881 117.391 45.5881C117.503 45.5881 117.606 45.5798 117.699 45.5632C117.795 45.5466 117.868 45.5317 117.918 45.5185L118.221 46.9254C118.125 46.9586 117.987 46.995 117.808 47.0348C117.633 47.0746 117.417 47.0978 117.162 47.1044C116.711 47.1177 116.305 47.0497 115.944 46.9006C115.583 46.7481 115.296 46.5128 115.084 46.1946C114.875 45.8764 114.772 45.4787 114.776 45.0014V37.5341ZM119.587 47V39.3636H121.387V47H119.587ZM120.492 38.2798C120.207 38.2798 119.961 38.1854 119.756 37.9964C119.55 37.8042 119.448 37.5739 119.448 37.3054C119.448 37.0336 119.55 36.8033 119.756 36.6143C119.961 36.4221 120.207 36.326 120.492 36.326C120.78 36.326 121.025 36.4221 121.227 36.6143C121.433 36.8033 121.536 37.0336 121.536 37.3054C121.536 37.5739 121.433 37.8042 121.227 37.9964C121.025 38.1854 120.78 38.2798 120.492 38.2798ZM123.237 47V39.3636H124.957V40.6612H125.047C125.206 40.2237 125.469 39.8823 125.837 39.6371C126.205 39.3885 126.644 39.2642 127.155 39.2642C127.672 39.2642 128.108 39.3902 128.462 39.642C128.82 39.8906 129.072 40.2304 129.218 40.6612H129.298C129.467 40.237 129.752 39.8989 130.153 39.647C130.557 39.3918 131.036 39.2642 131.589 39.2642C132.292 39.2642 132.866 39.4863 133.31 39.9304C133.754 40.3745 133.976 41.0225 133.976 41.8743V47H132.171V42.1527C132.171 41.6787 132.045 41.3324 131.793 41.1136C131.541 40.8916 131.233 40.7805 130.869 40.7805C130.434 40.7805 130.095 40.9164 129.849 41.1882C129.607 41.4567 129.487 41.8063 129.487 42.2372V47H127.722V42.0781C127.722 41.6837 127.602 41.3688 127.364 41.1335C127.128 40.8982 126.82 40.7805 126.439 40.7805C126.18 40.7805 125.945 40.8468 125.733 40.9794C125.521 41.1087 125.352 41.2926 125.226 41.5312C125.1 41.7666 125.037 42.0417 125.037 42.3565V47H123.237ZM139.182 47.1491C138.417 47.1491 137.756 46.9901 137.199 46.6719C136.645 46.3504 136.219 45.8963 135.921 45.3097C135.623 44.7197 135.474 44.0253 135.474 43.2266C135.474 42.4411 135.623 41.7517 135.921 41.1584C136.223 40.5618 136.644 40.0978 137.184 39.7663C137.724 39.4316 138.359 39.2642 139.088 39.2642C139.559 39.2642 140.003 39.3404 140.42 39.4929C140.841 39.642 141.212 39.8741 141.534 40.1889C141.859 40.5038 142.114 40.9048 142.3 41.392C142.485 41.8759 142.578 42.4527 142.578 43.1222V43.674H136.319V42.4609H140.853C140.849 42.1162 140.775 41.8097 140.629 41.5412C140.483 41.2694 140.279 41.0556 140.018 40.8999C139.759 40.7441 139.457 40.6662 139.113 40.6662C138.745 40.6662 138.422 40.7557 138.143 40.9347C137.865 41.1103 137.648 41.3423 137.492 41.6307C137.34 41.9157 137.262 42.2289 137.258 42.5703V43.6293C137.258 44.0734 137.34 44.4545 137.502 44.7727C137.664 45.0876 137.891 45.3295 138.183 45.4986C138.475 45.6643 138.816 45.7472 139.207 45.7472C139.469 45.7472 139.706 45.7107 139.918 45.6378C140.13 45.5616 140.314 45.4505 140.47 45.3047C140.626 45.1589 140.743 44.9782 140.823 44.7628L142.503 44.9517C142.397 45.3958 142.195 45.7836 141.897 46.1151C141.602 46.4432 141.224 46.6984 140.763 46.8807C140.303 47.0597 139.776 47.1491 139.182 47.1491Z" fill="#101828"/>
<line x1="37.5" y1="62.5" x2="337.5" y2="62.5" stroke="#F2F4F7" stroke-linecap="round"/>
<line x1="37.5" y1="99.4" x2="337.5" y2="99.4" stroke="#F2F4F7" stroke-linecap="round"/>
<line x1="37.5" y1="133.8" x2="337.5" y2="133.8" stroke="#F2F4F7" stroke-linecap="round"/>
<line x1="37.5" y1="168.2" x2="337.5" y2="168.2" stroke="#F2F4F7" stroke-linecap="round"/>
<line x1="37.5" y1="202.6" x2="337.5" y2="202.6" stroke="#F2F4F7" stroke-linecap="round"/>
<line x1="37.5" y1="237" x2="337.5" y2="237" stroke="#F2F4F7" stroke-linecap="round"/>
<path d="M50.1009 250.273H51.1577V256.511C51.1577 257.068 51.0554 257.541 50.8509 257.93C50.6463 258.32 50.358 258.615 49.9858 258.817C49.6136 259.018 49.1747 259.119 48.669 259.119C48.1918 259.119 47.767 259.033 47.3949 258.859C47.0227 258.683 46.7301 258.433 46.517 258.109C46.304 257.786 46.1974 257.401 46.1974 256.955H47.2372C47.2372 257.202 47.2983 257.418 47.4205 257.602C47.5455 257.784 47.7159 257.926 47.9318 258.028C48.1477 258.131 48.3935 258.182 48.669 258.182C48.973 258.182 49.2315 258.118 49.4446 257.99C49.6577 257.862 49.8196 257.675 49.9304 257.428C50.044 257.178 50.1009 256.872 50.1009 256.511V250.273ZM55.0653 259.153C54.6506 259.153 54.2741 259.075 53.9361 258.919C53.598 258.76 53.3295 258.531 53.1307 258.233C52.9318 257.932 52.8324 257.568 52.8324 257.142C52.8324 256.767 52.9063 256.463 53.054 256.23C53.2017 255.994 53.3991 255.81 53.6463 255.676C53.8935 255.543 54.1662 255.443 54.4645 255.378C54.7656 255.31 55.0682 255.256 55.3722 255.216C55.7699 255.165 56.0923 255.126 56.3395 255.101C56.5895 255.072 56.7713 255.026 56.8849 254.96C57.0014 254.895 57.0597 254.781 57.0597 254.619V254.585C57.0597 254.165 56.9446 253.838 56.7145 253.605C56.4872 253.372 56.142 253.256 55.679 253.256C55.1989 253.256 54.8224 253.361 54.5497 253.571C54.277 253.781 54.0852 254.006 53.9744 254.244L53.0199 253.903C53.1903 253.506 53.4176 253.196 53.7017 252.974C53.9886 252.75 54.3011 252.594 54.6392 252.506C54.9801 252.415 55.3153 252.369 55.6449 252.369C55.8551 252.369 56.0966 252.395 56.3693 252.446C56.6449 252.494 56.9105 252.595 57.1662 252.749C57.4247 252.902 57.6392 253.134 57.8097 253.443C57.9801 253.753 58.0653 254.168 58.0653 254.688V259H57.0597V258.114H57.0085C56.9403 258.256 56.8267 258.408 56.6676 258.57C56.5085 258.732 56.2969 258.869 56.0327 258.983C55.7685 259.097 55.446 259.153 55.0653 259.153ZM55.2188 258.25C55.6165 258.25 55.9517 258.172 56.2244 258.016C56.5 257.859 56.7074 257.658 56.8466 257.411C56.9886 257.163 57.0597 256.903 57.0597 256.631V255.71C57.017 255.761 56.9233 255.808 56.7784 255.851C56.6364 255.891 56.4716 255.926 56.2841 255.957C56.0994 255.986 55.919 256.011 55.7429 256.034C55.5696 256.054 55.429 256.071 55.321 256.085C55.0597 256.119 54.8153 256.175 54.5881 256.251C54.3636 256.325 54.1818 256.437 54.0426 256.588C53.9063 256.736 53.8381 256.937 53.8381 257.193C53.8381 257.543 53.9673 257.807 54.2259 257.986C54.4872 258.162 54.8182 258.25 55.2188 258.25ZM60.9066 255.062V259H59.9009V252.455H60.8725V253.477H60.9577C61.1112 253.145 61.3441 252.878 61.6566 252.676C61.9691 252.472 62.3725 252.369 62.8668 252.369C63.31 252.369 63.6978 252.46 64.0302 252.642C64.3626 252.821 64.6211 253.094 64.8058 253.46C64.9904 253.824 65.0827 254.284 65.0827 254.841V259H64.0771V254.909C64.0771 254.395 63.9435 253.994 63.6765 253.707C63.4094 253.418 63.043 253.273 62.5771 253.273C62.256 253.273 61.9691 253.342 61.7163 253.482C61.4663 253.621 61.2688 253.824 61.1239 254.091C60.979 254.358 60.9066 254.682 60.9066 255.062Z" fill="#475467"/>
<path d="M89.3211 250.273H90.5825L93.5484 257.517H93.6507L96.6166 250.273H97.878V259H96.8893V252.369H96.8041L94.0768 259H93.1223L90.395 252.369H90.3098V259H89.3211V250.273ZM101.787 259.153C101.372 259.153 100.995 259.075 100.657 258.919C100.319 258.76 100.051 258.531 99.852 258.233C99.6532 257.932 99.5537 257.568 99.5537 257.142C99.5537 256.767 99.6276 256.463 99.7753 256.23C99.9231 255.994 100.12 255.81 100.368 255.676C100.615 255.543 100.888 255.443 101.186 255.378C101.487 255.31 101.79 255.256 102.094 255.216C102.491 255.165 102.814 255.126 103.061 255.101C103.311 255.072 103.493 255.026 103.606 254.96C103.723 254.895 103.781 254.781 103.781 254.619V254.585C103.781 254.165 103.666 253.838 103.436 253.605C103.209 253.372 102.863 253.256 102.4 253.256C101.92 253.256 101.544 253.361 101.271 253.571C100.998 253.781 100.807 254.006 100.696 254.244L99.7412 253.903C99.9117 253.506 100.139 253.196 100.423 252.974C100.71 252.75 101.022 252.594 101.361 252.506C101.701 252.415 102.037 252.369 102.366 252.369C102.576 252.369 102.818 252.395 103.091 252.446C103.366 252.494 103.632 252.595 103.888 252.749C104.146 252.902 104.361 253.134 104.531 253.443C104.701 253.753 104.787 254.168 104.787 254.688V259H103.781V258.114H103.73C103.662 258.256 103.548 258.408 103.389 258.57C103.23 258.732 103.018 258.869 102.754 258.983C102.49 259.097 102.167 259.153 101.787 259.153ZM101.94 258.25C102.338 258.25 102.673 258.172 102.946 258.016C103.221 257.859 103.429 257.658 103.568 257.411C103.71 257.163 103.781 256.903 103.781 256.631V255.71C103.738 255.761 103.645 255.808 103.5 255.851C103.358 255.891 103.193 255.926 103.005 255.957C102.821 255.986 102.64 256.011 102.464 256.034C102.291 256.054 102.15 256.071 102.042 256.085C101.781 256.119 101.537 256.175 101.309 256.251C101.085 256.325 100.903 256.437 100.764 256.588C100.628 256.736 100.559 256.937 100.559 257.193C100.559 257.543 100.689 257.807 100.947 257.986C101.209 258.162 101.54 258.25 101.94 258.25ZM106.622 259V252.455H107.594V253.443H107.662C107.781 253.119 107.997 252.857 108.31 252.655C108.622 252.453 108.975 252.352 109.367 252.352C109.44 252.352 109.533 252.354 109.644 252.357C109.754 252.359 109.838 252.364 109.895 252.369V253.392C109.861 253.384 109.783 253.371 109.661 253.354C109.541 253.334 109.415 253.324 109.281 253.324C108.963 253.324 108.679 253.391 108.429 253.524C108.182 253.655 107.986 253.837 107.841 254.07C107.699 254.3 107.628 254.562 107.628 254.858V259H106.622Z" fill="#475467"/>
<path d="M133.507 250.273H134.769L137.735 257.517H137.837L140.803 250.273H142.064V259H141.076V252.369H140.99L138.263 259H137.308L134.581 252.369H134.496V259H133.507V250.273ZM145.973 259.153C145.558 259.153 145.182 259.075 144.844 258.919C144.506 258.76 144.237 258.531 144.038 258.233C143.839 257.932 143.74 257.568 143.74 257.142C143.74 256.767 143.814 256.463 143.962 256.23C144.109 255.994 144.307 255.81 144.554 255.676C144.801 255.543 145.074 255.443 145.372 255.378C145.673 255.31 145.976 255.256 146.28 255.216C146.677 255.165 147 255.126 147.247 255.101C147.497 255.072 147.679 255.026 147.792 254.96C147.909 254.895 147.967 254.781 147.967 254.619V254.585C147.967 254.165 147.852 253.838 147.622 253.605C147.395 253.372 147.05 253.256 146.587 253.256C146.106 253.256 145.73 253.361 145.457 253.571C145.185 253.781 144.993 254.006 144.882 254.244L143.927 253.903C144.098 253.506 144.325 253.196 144.609 252.974C144.896 252.75 145.209 252.594 145.547 252.506C145.888 252.415 146.223 252.369 146.552 252.369C146.763 252.369 147.004 252.395 147.277 252.446C147.552 252.494 147.818 252.595 148.074 252.749C148.332 252.902 148.547 253.134 148.717 253.443C148.888 253.753 148.973 254.168 148.973 254.688V259H147.967V258.114H147.916C147.848 258.256 147.734 258.408 147.575 258.57C147.416 258.732 147.204 258.869 146.94 258.983C146.676 259.097 146.354 259.153 145.973 259.153ZM146.126 258.25C146.524 258.25 146.859 258.172 147.132 258.016C147.408 257.859 147.615 257.658 147.754 257.411C147.896 257.163 147.967 256.903 147.967 256.631V255.71C147.925 255.761 147.831 255.808 147.686 255.851C147.544 255.891 147.379 255.926 147.192 255.957C147.007 255.986 146.827 256.011 146.65 256.034C146.477 256.054 146.337 256.071 146.229 256.085C145.967 256.119 145.723 256.175 145.496 256.251C145.271 256.325 145.089 256.437 144.95 256.588C144.814 256.736 144.746 256.937 144.746 257.193C144.746 257.543 144.875 257.807 145.133 257.986C145.395 258.162 145.726 258.25 146.126 258.25ZM151.222 261.455C151.051 261.455 150.899 261.44 150.766 261.412C150.632 261.386 150.54 261.361 150.489 261.335L150.745 260.449C150.989 260.511 151.205 260.534 151.392 260.517C151.58 260.5 151.746 260.416 151.891 260.266C152.039 260.118 152.174 259.878 152.296 259.545L152.483 259.034L150.063 252.455H151.154L152.96 257.67H153.029L154.835 252.455H155.926L153.148 259.955C153.023 260.293 152.868 260.572 152.683 260.794C152.499 261.018 152.284 261.185 152.04 261.293C151.799 261.401 151.526 261.455 151.222 261.455Z" fill="#475467"/>
<path d="M183.562 250.273H184.619V256.511C184.619 257.068 184.516 257.541 184.312 257.93C184.107 258.32 183.819 258.615 183.447 258.817C183.075 259.018 182.636 259.119 182.13 259.119C181.653 259.119 181.228 259.033 180.856 258.859C180.484 258.683 180.191 258.433 179.978 258.109C179.765 257.786 179.658 257.401 179.658 256.955H180.698C180.698 257.202 180.759 257.418 180.881 257.602C181.006 257.784 181.177 257.926 181.393 258.028C181.609 258.131 181.854 258.182 182.13 258.182C182.434 258.182 182.692 258.118 182.906 257.99C183.119 257.862 183.281 257.675 183.391 257.428C183.505 257.178 183.562 256.872 183.562 256.511V250.273ZM190.725 256.324V252.455H191.731V259H190.725V257.892H190.657C190.504 258.224 190.265 258.507 189.941 258.74C189.617 258.97 189.208 259.085 188.714 259.085C188.305 259.085 187.941 258.996 187.623 258.817C187.305 258.635 187.055 258.362 186.873 257.999C186.691 257.632 186.6 257.17 186.6 256.614V252.455H187.606V256.545C187.606 257.023 187.739 257.403 188.006 257.688C188.276 257.972 188.62 258.114 189.038 258.114C189.288 258.114 189.542 258.05 189.8 257.922C190.062 257.794 190.281 257.598 190.457 257.334C190.636 257.07 190.725 256.733 190.725 256.324ZM194.578 250.273V259H193.573V250.273H194.578Z" fill="#475467"/>
<path d="M223.547 252.455C223.496 252.023 223.288 251.688 222.925 251.449C222.561 251.21 222.115 251.091 221.587 251.091C221.2 251.091 220.862 251.153 220.573 251.278C220.286 251.403 220.061 251.575 219.899 251.794C219.74 252.013 219.661 252.261 219.661 252.54C219.661 252.773 219.716 252.973 219.827 253.141C219.94 253.305 220.085 253.443 220.261 253.554C220.438 253.662 220.622 253.751 220.815 253.822C221.009 253.891 221.186 253.946 221.348 253.989L222.234 254.227C222.462 254.287 222.715 254.369 222.993 254.474C223.274 254.58 223.543 254.723 223.798 254.905C224.057 255.084 224.27 255.314 224.438 255.595C224.605 255.876 224.689 256.222 224.689 256.631C224.689 257.102 224.565 257.528 224.318 257.909C224.074 258.29 223.716 258.592 223.244 258.817C222.776 259.041 222.206 259.153 221.536 259.153C220.911 259.153 220.369 259.053 219.912 258.851C219.457 258.649 219.1 258.368 218.838 258.007C218.58 257.646 218.433 257.227 218.399 256.75H219.49C219.519 257.08 219.629 257.352 219.823 257.568C220.019 257.781 220.266 257.94 220.564 258.045C220.865 258.148 221.189 258.199 221.536 258.199C221.939 258.199 222.301 258.134 222.622 258.003C222.943 257.869 223.198 257.685 223.385 257.449C223.573 257.21 223.666 256.932 223.666 256.614C223.666 256.324 223.585 256.088 223.423 255.906C223.261 255.724 223.048 255.577 222.784 255.463C222.52 255.349 222.234 255.25 221.928 255.165L220.854 254.858C220.172 254.662 219.632 254.382 219.234 254.018C218.837 253.655 218.638 253.179 218.638 252.591C218.638 252.102 218.77 251.676 219.034 251.312C219.301 250.946 219.659 250.662 220.108 250.46C220.56 250.256 221.064 250.153 221.621 250.153C222.183 250.153 222.683 250.254 223.121 250.456C223.558 250.655 223.905 250.928 224.161 251.274C224.419 251.621 224.556 252.014 224.57 252.455H223.547ZM229.035 259.136C228.404 259.136 227.86 258.997 227.402 258.719C226.948 258.438 226.597 258.045 226.35 257.543C226.106 257.037 225.983 256.449 225.983 255.778C225.983 255.108 226.106 254.517 226.35 254.006C226.597 253.491 226.941 253.091 227.381 252.804C227.824 252.514 228.341 252.369 228.932 252.369C229.273 252.369 229.61 252.426 229.942 252.54C230.275 252.653 230.577 252.838 230.85 253.094C231.123 253.347 231.34 253.682 231.502 254.099C231.664 254.517 231.745 255.031 231.745 255.642V256.068H226.699V255.199H230.722C230.722 254.83 230.648 254.5 230.5 254.21C230.356 253.92 230.148 253.692 229.878 253.524C229.611 253.357 229.296 253.273 228.932 253.273C228.532 253.273 228.185 253.372 227.893 253.571C227.603 253.767 227.38 254.023 227.223 254.338C227.067 254.653 226.989 254.991 226.989 255.352V255.932C226.989 256.426 227.074 256.845 227.245 257.189C227.418 257.53 227.658 257.79 227.965 257.969C228.272 258.145 228.628 258.233 229.035 258.233C229.299 258.233 229.537 258.196 229.75 258.122C229.966 258.045 230.152 257.932 230.309 257.781C230.465 257.628 230.586 257.437 230.671 257.21L231.643 257.483C231.54 257.812 231.368 258.102 231.127 258.352C230.885 258.599 230.587 258.793 230.232 258.932C229.877 259.068 229.478 259.136 229.035 259.136ZM233.275 261.455V252.455H234.246V253.494H234.366C234.439 253.381 234.542 253.236 234.672 253.06C234.806 252.881 234.996 252.722 235.243 252.582C235.493 252.44 235.831 252.369 236.258 252.369C236.809 252.369 237.294 252.507 237.715 252.783C238.135 253.058 238.464 253.449 238.699 253.955C238.935 254.46 239.053 255.057 239.053 255.744C239.053 256.438 238.935 257.038 238.699 257.547C238.464 258.053 238.137 258.445 237.719 258.723C237.302 258.999 236.82 259.136 236.275 259.136C235.854 259.136 235.518 259.067 235.265 258.928C235.012 258.786 234.817 258.625 234.681 258.446C234.544 258.264 234.439 258.114 234.366 257.994H234.28V261.455H233.275ZM234.263 255.727C234.263 256.222 234.336 256.658 234.481 257.036C234.625 257.411 234.837 257.705 235.116 257.918C235.394 258.128 235.735 258.233 236.138 258.233C236.559 258.233 236.91 258.122 237.191 257.901C237.475 257.676 237.688 257.375 237.83 256.997C237.975 256.616 238.047 256.193 238.047 255.727C238.047 255.267 237.976 254.852 237.834 254.483C237.695 254.111 237.483 253.817 237.199 253.601C236.918 253.382 236.564 253.273 236.138 253.273C235.729 253.273 235.385 253.376 235.107 253.584C234.829 253.788 234.618 254.075 234.476 254.445C234.334 254.811 234.263 255.239 234.263 255.727Z" fill="#475467"/>
<path d="M270.17 250.273V259H269.147L264.392 252.148H264.306V259H263.25V250.273H264.272L269.045 257.142H269.13V250.273H270.17ZM274.807 259.136C274.216 259.136 273.698 258.996 273.252 258.714C272.809 258.433 272.462 258.04 272.212 257.534C271.965 257.028 271.841 256.437 271.841 255.761C271.841 255.08 271.965 254.484 272.212 253.976C272.462 253.467 272.809 253.072 273.252 252.791C273.698 252.51 274.216 252.369 274.807 252.369C275.398 252.369 275.915 252.51 276.359 252.791C276.805 253.072 277.151 253.467 277.398 253.976C277.648 254.484 277.773 255.08 277.773 255.761C277.773 256.437 277.648 257.028 277.398 257.534C277.151 258.04 276.805 258.433 276.359 258.714C275.915 258.996 275.398 259.136 274.807 259.136ZM274.807 258.233C275.256 258.233 275.626 258.118 275.915 257.888C276.205 257.658 276.42 257.355 276.559 256.98C276.698 256.605 276.768 256.199 276.768 255.761C276.768 255.324 276.698 254.916 276.559 254.538C276.42 254.161 276.205 253.855 275.915 253.622C275.626 253.389 275.256 253.273 274.807 253.273C274.359 253.273 273.989 253.389 273.699 253.622C273.41 253.855 273.195 254.161 273.056 254.538C272.917 254.916 272.847 255.324 272.847 255.761C272.847 256.199 272.917 256.605 273.056 256.98C273.195 257.355 273.41 257.658 273.699 257.888C273.989 258.118 274.359 258.233 274.807 258.233ZM284.426 252.455L282.006 259H280.983L278.563 252.455H279.654L281.46 257.67H281.529L283.335 252.455H284.426Z" fill="#475467"/>
<path d="M311.437 259H308.744V250.273H311.557C312.403 250.273 313.128 250.447 313.73 250.797C314.332 251.143 314.794 251.642 315.115 252.293C315.436 252.94 315.597 253.716 315.597 254.619C315.597 255.528 315.435 256.311 315.111 256.967C314.787 257.621 314.315 258.124 313.696 258.476C313.077 258.825 312.324 259 311.437 259ZM309.801 258.062H311.369C312.091 258.062 312.689 257.923 313.163 257.645C313.638 257.366 313.991 256.97 314.224 256.456C314.457 255.942 314.574 255.33 314.574 254.619C314.574 253.915 314.459 253.308 314.229 252.8C313.999 252.288 313.655 251.896 313.197 251.624C312.74 251.348 312.17 251.21 311.489 251.21H309.801V258.062ZM319.977 259.136C319.347 259.136 318.803 258.997 318.345 258.719C317.891 258.438 317.54 258.045 317.293 257.543C317.048 257.037 316.926 256.449 316.926 255.778C316.926 255.108 317.048 254.517 317.293 254.006C317.54 253.491 317.883 253.091 318.324 252.804C318.767 252.514 319.284 252.369 319.875 252.369C320.216 252.369 320.553 252.426 320.885 252.54C321.217 252.653 321.52 252.838 321.793 253.094C322.065 253.347 322.283 253.682 322.445 254.099C322.607 254.517 322.687 255.031 322.687 255.642V256.068H317.642V255.199H321.665C321.665 254.83 321.591 254.5 321.443 254.21C321.298 253.92 321.091 253.692 320.821 253.524C320.554 253.357 320.239 253.273 319.875 253.273C319.474 253.273 319.128 253.372 318.835 253.571C318.545 253.767 318.322 254.023 318.166 254.338C318.01 254.653 317.932 254.991 317.932 255.352V255.932C317.932 256.426 318.017 256.845 318.187 257.189C318.361 257.53 318.601 257.79 318.908 257.969C319.214 258.145 319.571 258.233 319.977 258.233C320.241 258.233 320.48 258.196 320.693 258.122C320.909 258.045 321.095 257.932 321.251 257.781C321.408 257.628 321.528 257.437 321.614 257.21L322.585 257.483C322.483 257.812 322.311 258.102 322.07 258.352C321.828 258.599 321.53 258.793 321.175 258.932C320.82 259.068 320.42 259.136 319.977 259.136ZM326.876 259.136C326.263 259.136 325.734 258.991 325.291 258.702C324.848 258.412 324.507 258.013 324.268 257.504C324.03 256.996 323.91 256.415 323.91 255.761C323.91 255.097 324.033 254.51 324.277 254.001C324.524 253.49 324.868 253.091 325.308 252.804C325.751 252.514 326.268 252.369 326.859 252.369C327.32 252.369 327.734 252.455 328.104 252.625C328.473 252.795 328.776 253.034 329.011 253.341C329.247 253.648 329.393 254.006 329.45 254.415H328.445C328.368 254.116 328.197 253.852 327.933 253.622C327.672 253.389 327.32 253.273 326.876 253.273C326.484 253.273 326.141 253.375 325.845 253.58C325.553 253.781 325.324 254.067 325.159 254.436C324.997 254.803 324.916 255.233 324.916 255.727C324.916 256.233 324.996 256.673 325.155 257.048C325.317 257.423 325.544 257.714 325.837 257.922C326.132 258.129 326.479 258.233 326.876 258.233C327.138 258.233 327.375 258.188 327.588 258.097C327.801 258.006 327.982 257.875 328.129 257.705C328.277 257.534 328.382 257.33 328.445 257.091H329.45C329.393 257.477 329.253 257.825 329.028 258.135C328.807 258.442 328.513 258.686 328.146 258.868C327.783 259.047 327.359 259.136 326.876 259.136Z" fill="#475467"/>
<mask id="mask0_202_3940" style="mask-type:alpha" maskUnits="userSpaceOnUse" x="37" y="98" width="301" height="139">
<rect width="301" height="139" transform="translate(37 98)" fill="url(#paint0_linear_202_3940)"/>
</mask>
<g mask="url(#mask0_202_3940)">
<path opacity="0.1" d="M43.8215 130.808L37 133.901V237H338V96.3229L331.605 101.461H324.783L321.586 106.272H317.322C316.185 107.074 313.826 108.677 313.485 108.677C313.144 108.677 310.927 109.639 309.861 110.121L300.695 111.564L295.365 113.488L286.839 111.564L282.362 110.121L275.967 113.488H269.358L263.816 110.121C261.684 109.639 257.335 108.677 256.994 108.677C256.653 108.677 253.868 107.715 252.518 107.234H249.107L241.006 108.677L233.972 110.121L230.774 113.488L221.181 114.931L216.278 116.375L210.736 118.78L205.407 124.553H203.062L196.666 123.11L190.484 118.78L185.155 116.375H181.958L176.415 114.931L168.528 116.375H161.067L153.606 118.78L146.144 121.667L140.602 124.553L134.633 125.997L126.533 124.553L120.137 125.997L113.742 127.44L107.773 125.997L99.6728 129.364L92.8513 127.44L86.0297 129.364H79.4214L72.3867 130.808H65.1388L57.8909 132.251L50.8562 129.364L43.8215 130.808Z" fill="#7F56D9"/>
</g>
<path d="M37 133.901L43.8215 130.808L50.8562 129.364L57.8909 132.251L65.1388 130.808H72.3867L79.4214 129.364H86.0297L92.8513 127.44L99.6728 129.364L107.773 125.997L113.742 127.44L120.137 125.997L126.533 124.553L134.633 125.997L140.602 124.553L146.144 121.667L153.606 118.78L161.067 116.375H168.528L176.415 114.931L181.958 116.375H185.155L190.484 118.78L196.666 123.11L203.062 124.553H205.407L210.736 118.78L216.278 116.375L221.181 114.931L230.774 113.488L233.972 110.121L241.006 108.677L249.107 107.234H252.518C253.868 107.715 256.653 108.677 256.994 108.677C257.335 108.677 261.684 109.639 263.816 110.121L269.358 113.488H275.967L282.362 110.121L286.839 111.564L295.365 113.488L300.695 111.564L309.861 110.121C310.927 109.639 313.144 108.677 313.485 108.677C313.826 108.677 316.185 107.074 317.322 106.272H321.586L324.783 101.461H331.605L338 96.3229" stroke="#7F56D9" stroke-width="2" stroke-linecap="round" stroke-linejoin="round"/>
<path d="M37 171.327L43.8215 169.357L50.8562 168.437L57.8909 170.276L65.1388 169.357H72.3867L79.4214 168.437H86.0297L92.8513 167.212L99.6728 168.437L107.773 166.292L113.742 167.212L120.137 166.292L126.533 165.373L134.633 166.292L140.602 165.373L146.144 163.534L153.606 161.696L161.067 160.163H168.528L176.415 159.244L181.958 160.163H185.155L190.484 161.696L196.666 164.454L203.062 165.373H205.407L210.736 161.696L216.278 160.163L221.181 159.244L230.774 158.325L233.972 156.179L241.006 155.26L249.107 154.341H252.518C253.868 154.647 256.653 155.26 256.994 155.26C257.335 155.26 261.684 155.873 263.816 156.179L269.358 158.325H275.967L282.362 156.179L286.839 157.099L295.365 158.325L300.695 157.099L309.861 156.179C310.927 155.873 313.144 155.26 313.485 155.26C313.826 155.26 316.185 154.239 317.322 153.728H321.586L324.783 150.663H331.605L338 147.391" stroke="#B692F6" stroke-width="2" stroke-linecap="round" stroke-linejoin="round"/>
<path d="M37 218.693L43.8215 213.457L50.8562 211.015L57.8909 215.9L65.1388 213.457H72.3867L79.4214 211.015H86.0297L92.8513 207.758L99.6728 211.015L107.773 205.316L113.742 207.758L120.137 205.316L126.533 202.873L134.633 205.316L140.602 202.873L146.144 197.988L153.606 193.104L161.067 189.033H168.528L176.415 186.59L181.958 189.033H185.155L190.484 193.104L196.666 200.431L203.062 202.873H205.407L210.736 193.104L216.278 189.033L221.181 186.59L230.774 184.148L233.972 178.449L241.006 176.006L249.107 173.564H252.518C253.868 174.378 256.653 176.006 256.994 176.006C257.335 176.006 261.684 177.635 263.816 178.449L269.358 184.148H275.967L282.362 178.449L286.839 180.891L295.365 184.148L300.695 180.891L309.861 178.449C310.927 177.635 313.144 176.006 313.485 176.006C313.826 176.006 316.185 173.292 317.322 171.935H321.586L324.783 163.794H331.605L338 155.099" stroke="#6941C6" stroke-width="2" stroke-linecap="round" stroke-linejoin="round"/>
</g>
<g filter="url(#filter1_b_202_3940)">
<path d="M230 228C230 174.981 272.981 132 326 132C379.019 132 422 174.981 422 228C422 281.019 379.019 324 326 324C272.981 324 230 281.019 230 228Z" fill="white" fill-opacity="0.9"/>
<path d="M326 152C335.98 152 345.863 153.966 355.084 157.785C364.305 161.605 372.683 167.203 379.74 174.26C386.797 181.317 392.395 189.695 396.215 198.916C400.034 208.137 402 218.02 402 228C402 237.98 400.034 247.863 396.215 257.084C392.395 266.305 386.797 274.683 379.74 281.74C372.683 288.797 364.305 294.395 355.084 298.215C345.863 302.034 335.98 304 326 304C316.02 304 306.137 302.034 296.916 298.215C287.695 294.395 279.317 288.797 272.26 281.74C265.203 274.683 259.604 266.305 255.785 257.084C251.966 247.863 250 237.98 250 228C250 218.019 251.966 208.137 255.785 198.916C259.605 189.695 265.203 181.317 272.26 174.26C279.317 167.203 287.695 161.604 296.916 157.785C306.137 153.966 316.02 152 326 152L326 152Z" stroke="#F2F4F7" stroke-width="8" stroke-linecap="round" stroke-linejoin="round"/>
<path d="M326 152C343.395 152 360.264 157.967 373.79 168.906C387.315 179.844 396.679 195.091 400.318 212.101C403.957 229.111 401.651 246.855 393.784 262.37C385.918 277.885 372.967 290.231 357.094 297.348C341.221 304.465 323.388 305.922 306.571 301.475C289.754 297.027 274.971 286.946 264.691 272.913C254.411 258.881 249.256 241.746 250.087 224.371C250.917 206.996 257.683 190.431 269.255 177.443" stroke="#6941C6" stroke-width="8" stroke-linecap="round" stroke-linejoin="round"/>
<path d="M326 164C334.405 164 342.727 165.655 350.492 168.872C358.257 172.088 365.312 176.802 371.255 182.745C377.198 188.688 381.912 195.743 385.128 203.508C388.345 211.273 390 219.595 390 228C390 236.405 388.345 244.727 385.128 252.492C381.912 260.257 377.198 267.312 371.255 273.255C365.312 279.198 358.257 283.912 350.492 287.128C342.727 290.345 334.405 292 326 292C317.595 292 309.273 290.345 301.508 287.128C293.743 283.912 286.688 279.198 280.745 273.255C274.802 267.312 270.088 260.257 266.872 252.492C263.655 244.727 262 236.405 262 228C262 219.595 263.655 211.273 266.872 203.508C270.088 195.743 274.802 188.688 280.745 182.745C286.688 176.802 293.743 172.088 301.508 168.872C309.273 165.655 317.595 164 326 164L326 164Z" stroke="#F2F4F7" stroke-width="8" stroke-linecap="round" stroke-linejoin="round"/>
<path d="M326 164C339.072 164 351.831 168.003 362.561 175.471C373.29 182.938 381.475 193.513 386.016 205.771C390.556 218.03 391.234 231.384 387.957 244.04C384.681 256.695 377.608 268.043 367.69 276.559C357.772 285.074 345.484 290.348 332.478 291.671C319.473 292.995 306.375 290.304 294.945 283.96C283.514 277.617 274.301 267.926 268.543 256.19C262.785 244.454 260.759 231.236 262.737 218.314" stroke="#7F56D9" stroke-width="8" stroke-linecap="round" stroke-linejoin="round"/>
<path d="M326 176C332.829 176 339.591 177.345 345.9 179.958C352.208 182.572 357.941 186.402 362.77 191.23C367.598 196.059 371.428 201.792 374.042 208.1C376.655 214.409 378 221.171 378 228C378 234.829 376.655 241.591 374.042 247.9C371.428 254.208 367.598 259.941 362.77 264.77C357.941 269.598 352.208 273.428 345.9 276.042C339.591 278.655 332.829 280 326 280C319.171 280 312.409 278.655 306.1 276.042C299.792 273.428 294.059 269.598 289.23 264.77C284.402 259.941 280.571 254.208 277.958 247.9C275.345 241.591 274 234.829 274 228C274 221.171 275.345 214.409 277.958 208.1C280.572 201.792 284.402 196.059 289.23 191.23C294.059 186.402 299.792 182.571 306.1 179.958C312.409 177.345 319.171 176 326 176L326 176Z" stroke="#F2F4F7" stroke-width="8" stroke-linecap="round" stroke-linejoin="round"/>
<path d="M326 176C335.047 176 343.937 178.36 351.792 182.847C359.647 187.334 366.196 193.793 370.791 201.585C375.387 209.378 377.87 218.234 377.995 227.28C378.12 236.326 375.883 245.248 371.506 253.164C367.128 261.081 360.76 267.719 353.032 272.421C345.304 277.124 336.483 279.73 327.44 279.98C318.397 280.231 309.445 278.117 301.468 273.85C293.491 269.582 286.766 263.307 281.957 255.644" stroke="#B692F6" stroke-width="8" stroke-linecap="round" stroke-linejoin="round"/>
<path d="M291.694 217H290.296L293.437 208.273H294.958L298.099 217H296.701L294.234 209.858H294.166L291.694 217ZM291.928 213.582H296.463V214.69H291.928V213.582ZM301.909 217.132C301.275 217.132 300.73 216.989 300.272 216.702C299.818 216.412 299.468 216.013 299.224 215.504C298.98 214.996 298.857 214.413 298.857 213.757C298.857 213.092 298.982 212.506 299.232 211.997C299.482 211.486 299.835 211.087 300.289 210.8C300.744 210.513 301.279 210.369 301.896 210.369C302.393 210.369 302.836 210.462 303.225 210.646C303.615 210.828 303.928 211.084 304.167 211.413C304.409 211.743 304.552 212.128 304.597 212.568H303.357C303.289 212.261 303.133 211.997 302.889 211.776C302.647 211.554 302.323 211.443 301.917 211.443C301.562 211.443 301.251 211.537 300.984 211.724C300.72 211.909 300.514 212.173 300.366 212.517C300.218 212.858 300.144 213.261 300.144 213.727C300.144 214.205 300.217 214.616 300.362 214.963C300.507 215.31 300.711 215.578 300.975 215.768C301.242 215.959 301.556 216.054 301.917 216.054C302.159 216.054 302.377 216.01 302.573 215.922C302.772 215.831 302.938 215.702 303.072 215.534C303.208 215.366 303.303 215.165 303.357 214.929H304.597C304.552 215.352 304.414 215.73 304.184 216.062C303.954 216.395 303.646 216.656 303.259 216.847C302.876 217.037 302.426 217.132 301.909 217.132ZM309.015 210.455V211.477H305.44V210.455H309.015ZM306.399 208.886H307.673V215.078C307.673 215.325 307.71 215.511 307.784 215.636C307.858 215.759 307.953 215.842 308.069 215.888C308.189 215.93 308.318 215.952 308.457 215.952C308.559 215.952 308.649 215.945 308.726 215.93C308.802 215.916 308.862 215.905 308.905 215.896L309.135 216.949C309.061 216.977 308.956 217.006 308.819 217.034C308.683 217.065 308.513 217.082 308.308 217.085C307.973 217.091 307.66 217.031 307.371 216.906C307.081 216.781 306.846 216.588 306.667 216.327C306.488 216.065 306.399 215.737 306.399 215.342V208.886ZM310.425 217V210.455H311.699V217H310.425ZM311.068 209.445C310.847 209.445 310.656 209.371 310.497 209.223C310.341 209.072 310.263 208.893 310.263 208.686C310.263 208.476 310.341 208.297 310.497 208.149C310.656 207.999 310.847 207.923 311.068 207.923C311.29 207.923 311.479 207.999 311.635 208.149C311.794 208.297 311.874 208.476 311.874 208.686C311.874 208.893 311.794 209.072 311.635 209.223C311.479 209.371 311.29 209.445 311.068 209.445ZM319.013 210.455L316.639 217H315.275L312.898 210.455H314.265L315.923 215.491H315.991L317.645 210.455H319.013ZM322.808 217.132C322.164 217.132 321.608 216.994 321.142 216.719C320.679 216.44 320.321 216.05 320.068 215.547C319.818 215.041 319.693 214.449 319.693 213.77C319.693 213.099 319.818 212.509 320.068 211.997C320.321 211.486 320.673 211.087 321.125 210.8C321.58 210.513 322.111 210.369 322.719 210.369C323.088 210.369 323.446 210.43 323.793 210.553C324.139 210.675 324.45 210.866 324.726 211.128C325.002 211.389 325.219 211.729 325.378 212.146C325.537 212.561 325.617 213.065 325.617 213.659V214.111H320.414V213.156H324.368C324.368 212.821 324.3 212.524 324.164 212.266C324.027 212.004 323.835 211.798 323.588 211.648C323.344 211.497 323.057 211.422 322.727 211.422C322.369 211.422 322.057 211.51 321.79 211.686C321.526 211.859 321.321 212.087 321.176 212.368C321.034 212.646 320.963 212.949 320.963 213.276V214.021C320.963 214.459 321.04 214.831 321.193 215.138C321.35 215.445 321.567 215.679 321.845 215.841C322.124 216 322.449 216.08 322.821 216.08C323.063 216.08 323.283 216.045 323.482 215.977C323.681 215.906 323.852 215.801 323.997 215.662C324.142 215.523 324.253 215.351 324.33 215.146L325.536 215.364C325.439 215.719 325.266 216.03 325.016 216.297C324.769 216.561 324.458 216.767 324.083 216.915C323.71 217.06 323.286 217.132 322.808 217.132ZM334.352 214.286V210.455H335.631V217H334.378V215.866H334.31C334.159 216.216 333.918 216.507 333.585 216.74C333.256 216.97 332.845 217.085 332.354 217.085C331.933 217.085 331.561 216.993 331.237 216.808C330.916 216.621 330.664 216.344 330.479 215.977C330.297 215.611 330.206 215.158 330.206 214.618V210.455H331.48V214.464C331.48 214.911 331.604 215.266 331.851 215.53C332.098 215.794 332.419 215.926 332.814 215.926C333.053 215.926 333.29 215.866 333.526 215.747C333.764 215.628 333.962 215.447 334.118 215.206C334.277 214.964 334.355 214.658 334.352 214.286ZM342.248 212.053L341.093 212.257C341.045 212.109 340.968 211.969 340.863 211.835C340.76 211.702 340.621 211.592 340.445 211.507C340.269 211.422 340.049 211.379 339.785 211.379C339.424 211.379 339.123 211.46 338.881 211.622C338.64 211.781 338.519 211.987 338.519 212.24C338.519 212.459 338.6 212.635 338.762 212.768C338.924 212.902 339.185 213.011 339.546 213.097L340.586 213.335C341.188 213.474 341.637 213.689 341.932 213.979C342.228 214.268 342.376 214.645 342.376 215.108C342.376 215.5 342.262 215.849 342.035 216.156C341.81 216.46 341.496 216.699 341.093 216.872C340.692 217.045 340.228 217.132 339.699 217.132C338.966 217.132 338.368 216.976 337.905 216.663C337.442 216.348 337.158 215.901 337.053 215.321L338.285 215.134C338.361 215.455 338.519 215.697 338.758 215.862C338.996 216.024 339.307 216.105 339.691 216.105C340.108 216.105 340.442 216.018 340.692 215.845C340.942 215.669 341.067 215.455 341.067 215.202C341.067 214.997 340.991 214.825 340.837 214.686C340.687 214.547 340.455 214.442 340.143 214.371L339.035 214.128C338.424 213.989 337.972 213.767 337.68 213.463C337.39 213.159 337.245 212.774 337.245 212.308C337.245 211.922 337.353 211.584 337.569 211.294C337.785 211.004 338.083 210.778 338.464 210.616C338.844 210.452 339.28 210.369 339.772 210.369C340.479 210.369 341.036 210.523 341.442 210.83C341.849 211.134 342.117 211.541 342.248 212.053ZM346.597 217.132C345.953 217.132 345.397 216.994 344.931 216.719C344.468 216.44 344.11 216.05 343.857 215.547C343.607 215.041 343.482 214.449 343.482 213.77C343.482 213.099 343.607 212.509 343.857 211.997C344.11 211.486 344.463 211.087 344.914 210.8C345.369 210.513 345.9 210.369 346.508 210.369C346.877 210.369 347.235 210.43 347.582 210.553C347.928 210.675 348.24 210.866 348.515 211.128C348.791 211.389 349.008 211.729 349.167 212.146C349.326 212.561 349.406 213.065 349.406 213.659V214.111H344.203V213.156H348.157C348.157 212.821 348.089 212.524 347.953 212.266C347.816 212.004 347.624 211.798 347.377 211.648C347.133 211.497 346.846 211.422 346.517 211.422C346.159 211.422 345.846 211.51 345.579 211.686C345.315 211.859 345.11 212.087 344.965 212.368C344.823 212.646 344.752 212.949 344.752 213.276V214.021C344.752 214.459 344.829 214.831 344.982 215.138C345.139 215.445 345.356 215.679 345.634 215.841C345.913 216 346.238 216.08 346.61 216.08C346.852 216.08 347.072 216.045 347.271 215.977C347.47 215.906 347.642 215.801 347.786 215.662C347.931 215.523 348.042 215.351 348.119 215.146L349.325 215.364C349.228 215.719 349.055 216.03 348.805 216.297C348.558 216.561 348.247 216.767 347.872 216.915C347.499 217.06 347.075 217.132 346.597 217.132ZM350.819 217V210.455H352.051V211.494H352.119C352.238 211.142 352.449 210.865 352.75 210.663C353.054 210.459 353.398 210.357 353.781 210.357C353.861 210.357 353.954 210.359 354.062 210.365C354.173 210.371 354.26 210.378 354.322 210.386V211.605C354.271 211.591 354.18 211.575 354.05 211.558C353.919 211.538 353.788 211.528 353.657 211.528C353.356 211.528 353.088 211.592 352.852 211.72C352.619 211.845 352.434 212.02 352.298 212.244C352.162 212.466 352.094 212.719 352.094 213.003V217H350.819ZM360.33 212.053L359.175 212.257C359.127 212.109 359.05 211.969 358.945 211.835C358.843 211.702 358.703 211.592 358.527 211.507C358.351 211.422 358.131 211.379 357.867 211.379C357.506 211.379 357.205 211.46 356.963 211.622C356.722 211.781 356.601 211.987 356.601 212.24C356.601 212.459 356.682 212.635 356.844 212.768C357.006 212.902 357.267 213.011 357.628 213.097L358.668 213.335C359.27 213.474 359.719 213.689 360.014 213.979C360.31 214.268 360.458 214.645 360.458 215.108C360.458 215.5 360.344 215.849 360.117 216.156C359.892 216.46 359.578 216.699 359.175 216.872C358.774 217.045 358.31 217.132 357.781 217.132C357.048 217.132 356.45 216.976 355.987 216.663C355.524 216.348 355.24 215.901 355.135 215.321L356.367 215.134C356.443 215.455 356.601 215.697 356.84 215.862C357.078 216.024 357.389 216.105 357.773 216.105C358.191 216.105 358.524 216.018 358.774 215.845C359.024 215.669 359.149 215.455 359.149 215.202C359.149 214.997 359.073 214.825 358.919 214.686C358.769 214.547 358.537 214.442 358.225 214.371L357.117 214.128C356.506 213.989 356.054 213.767 355.762 213.463C355.472 213.159 355.327 212.774 355.327 212.308C355.327 211.922 355.435 211.584 355.651 211.294C355.867 211.004 356.165 210.778 356.546 210.616C356.926 210.452 357.362 210.369 357.854 210.369C358.561 210.369 359.118 210.523 359.524 210.83C359.931 211.134 360.199 211.541 360.33 212.053Z" fill="#475467"/>
<path d="M306.629 228.455V243H303.994V231.018H303.909L300.507 233.192V230.777L304.122 228.455H306.629ZM312.568 241.011L312.476 241.793C312.409 242.389 312.291 242.995 312.121 243.611C311.955 244.231 311.78 244.802 311.595 245.322C311.41 245.843 311.261 246.253 311.148 246.551H309.415C309.481 246.262 309.571 245.869 309.684 245.372C309.803 244.875 309.916 244.316 310.025 243.696C310.134 243.076 310.208 242.446 310.246 241.807L310.295 241.011H312.568ZM320.23 243.277C319.06 243.277 318.056 242.981 317.218 242.389C316.385 241.793 315.743 240.933 315.294 239.811C314.848 238.684 314.626 237.328 314.626 235.741C314.631 234.155 314.856 232.806 315.301 231.693C315.75 230.576 316.392 229.723 317.225 229.136C318.063 228.549 319.065 228.256 320.23 228.256C321.394 228.256 322.396 228.549 323.234 229.136C324.072 229.723 324.713 230.576 325.159 231.693C325.608 232.811 325.833 234.16 325.833 235.741C325.833 237.332 325.608 238.691 325.159 239.818C324.713 240.94 324.072 241.797 323.234 242.389C322.401 242.981 321.399 243.277 320.23 243.277ZM320.23 241.054C321.139 241.054 321.856 240.607 322.382 239.712C322.912 238.812 323.177 237.489 323.177 235.741C323.177 234.586 323.056 233.616 322.815 232.83C322.573 232.044 322.232 231.452 321.792 231.054C321.352 230.652 320.831 230.45 320.23 230.45C319.325 230.45 318.61 230.9 318.085 231.8C317.559 232.695 317.294 234.009 317.289 235.741C317.285 236.902 317.401 237.877 317.637 238.668C317.879 239.458 318.22 240.055 318.66 240.457C319.1 240.855 319.624 241.054 320.23 241.054ZM333.569 243.277C332.4 243.277 331.396 242.981 330.558 242.389C329.725 241.793 329.083 240.933 328.633 239.811C328.188 238.684 327.966 237.328 327.966 235.741C327.97 234.155 328.195 232.806 328.64 231.693C329.09 230.576 329.732 229.723 330.565 229.136C331.403 228.549 332.405 228.256 333.569 228.256C334.734 228.256 335.736 228.549 336.574 229.136C337.412 229.723 338.053 230.576 338.498 231.693C338.948 232.811 339.173 234.16 339.173 235.741C339.173 237.332 338.948 238.691 338.498 239.818C338.053 240.94 337.412 241.797 336.574 242.389C335.74 242.981 334.739 243.277 333.569 243.277ZM333.569 241.054C334.479 241.054 335.196 240.607 335.721 239.712C336.252 238.812 336.517 237.489 336.517 235.741C336.517 234.586 336.396 233.616 336.155 232.83C335.913 232.044 335.572 231.452 335.132 231.054C334.692 230.652 334.171 230.45 333.569 230.45C332.665 230.45 331.95 230.9 331.425 231.8C330.899 232.695 330.634 234.009 330.629 235.741C330.624 236.902 330.74 237.877 330.977 238.668C331.219 239.458 331.559 240.055 332 240.457C332.44 240.855 332.963 241.054 333.569 241.054ZM346.909 243.277C345.74 243.277 344.736 242.981 343.898 242.389C343.065 241.793 342.423 240.933 341.973 239.811C341.528 238.684 341.306 237.328 341.306 235.741C341.31 234.155 341.535 232.806 341.98 231.693C342.43 230.576 343.072 229.723 343.905 229.136C344.743 228.549 345.744 228.256 346.909 228.256C348.074 228.256 349.075 228.549 349.914 229.136C350.752 229.723 351.393 230.576 351.838 231.693C352.288 232.811 352.513 234.16 352.513 235.741C352.513 237.332 352.288 238.691 351.838 239.818C351.393 240.94 350.752 241.797 349.914 242.389C349.08 242.981 348.079 243.277 346.909 243.277ZM346.909 241.054C347.818 241.054 348.536 240.607 349.061 239.712C349.592 238.812 349.857 237.489 349.857 235.741C349.857 234.586 349.736 233.616 349.494 232.83C349.253 232.044 348.912 231.452 348.472 231.054C348.031 230.652 347.511 230.45 346.909 230.45C346.005 230.45 345.29 230.9 344.764 231.8C344.239 232.695 343.974 234.009 343.969 235.741C343.964 236.902 344.08 237.877 344.317 238.668C344.558 239.458 344.899 240.055 345.34 240.457C345.78 240.855 346.303 241.054 346.909 241.054Z" fill="#101828"/>
</g>
<defs>
<filter id="filter0_d_202_3940" x="-19" y="0" width="413" height="344" filterUnits="userSpaceOnUse" color-interpolation-filters="sRGB">
<feFlood flood-opacity="0" result="BackgroundImageFix"/>
<feColorMatrix in="SourceAlpha" type="matrix" values="0 0 0 0 0 0 0 0 0 0 0 0 0 0 0 0 0 0 127 0" result="hardAlpha"/>
<feMorphology radius="12" operator="erode" in="SourceAlpha" result="effect1_dropShadow_202_3940"/>
<feOffset dy="24"/>
<feGaussianBlur stdDeviation="24"/>
<feComposite in2="hardAlpha" operator="out"/>
<feColorMatrix type="matrix" values="0 0 0 0 0.0625882 0 0 0 0 0.0926346 0 0 0 0 0.15702 0 0 0 0.18 0"/>
<feBlend mode="normal" in2="BackgroundImageFix" result="effect1_dropShadow_202_3940"/>
<feBlend mode="normal" in="SourceGraphic" in2="effect1_dropShadow_202_3940" result="shape"/>
</filter>
<filter id="filter1_b_202_3940" x="222" y="124" width="208" height="208" filterUnits="userSpaceOnUse" color-interpolation-filters="sRGB">
<feFlood flood-opacity="0" result="BackgroundImageFix"/>
<feGaussianBlur in="BackgroundImageFix" stdDeviation="4"/>
<feComposite in2="SourceAlpha" operator="in" result="effect1_backgroundBlur_202_3940"/>
<feBlend mode="normal" in="SourceGraphic" in2="effect1_backgroundBlur_202_3940" result="shape"/>
</filter>
<linearGradient id="paint0_linear_202_3940" x1="150.5" y1="0" x2="150.5" y2="139" gradientUnits="userSpaceOnUse">
<stop/>
<stop offset="1" stop-opacity="0"/>
</linearGradient>
</defs>
</svg>
