<svg width="57" height="56" viewBox="0 0 57 56" fill="none" xmlns="http://www.w3.org/2000/svg">
<g filter="url(#filter0_d_1191_112)">
<path d="M2.5 9C2.5 4.58172 6.08172 1 10.5 1H46.5C50.9183 1 54.5 4.58172 54.5 9V45C54.5 49.4183 50.9183 53 46.5 53H10.5C6.08172 53 2.5 49.4183 2.5 45V9Z" fill="white" shape-rendering="crispEdges"/>
<path d="M3 9C3 4.85786 6.35786 1.5 10.5 1.5H46.5C50.6421 1.5 54 4.85786 54 9V45C54 49.1421 50.6421 52.5 46.5 52.5H10.5C6.35786 52.5 3 49.1421 3 45V9Z" stroke="#EAECF0" shape-rendering="crispEdges"/>
<circle cx="28.5" cy="27" r="21" fill="#3290E8"/>
<path fill-rule="evenodd" clip-rule="evenodd" d="M37.5 15H19.5C17.8646 14.9975 16.5029 16.3676 16.5 18V36C16.5 37.6567 17.8435 39 19.5 39H37.5C39.1354 39.0025 40.4971 37.6324 40.5 36V18C40.5 16.3433 39.1571 15 37.5 15ZM31.6993 19.4C31.6993 18.9587 32.0581 18.6 32.5 18.6C32.9419 18.6 33.3 18.9587 33.3 19.4V30.0887C33.3 30.53 32.9412 30.8887 32.5 30.8887C32.0765 30.889 31.7011 30.5136 31.7 30.0887L31.6993 19.4ZM27.6993 18.9953C27.6993 18.5533 28.0581 18.1953 28.5 18.1953C28.9419 18.1953 29.3007 18.5533 29.3007 18.9953V30.5953C29.3007 31.0373 28.9419 31.3953 28.5 31.3953C28.0765 31.3957 27.7011 31.0203 27.7 30.5953L27.6993 18.9953ZM23.7 19.4C23.7 18.9587 24.0588 18.6 24.5 18.6C24.9419 18.6 25.3 18.9587 25.3 19.4V30.0887C25.3 30.53 24.9419 30.8887 24.5 30.8887C24.0765 30.889 23.7011 30.5136 23.7 30.0887V19.4ZM19.7 21C19.7 20.558 20.0581 20.2 20.5 20.2C20.9419 20.2 21.3 20.558 21.3 21V28.1953C21.3 28.6373 20.9412 28.9953 20.5 28.9953C20.0639 28.9961 19.7007 28.6307 19.7 28.1953V21ZM37.0209 33.2027C36.898 33.3093 33.9339 35.7953 28.5 35.7953C23.0661 35.7953 20.104 33.3087 19.9791 33.202C19.6485 32.9188 19.6094 32.405 19.8927 32.0747C20.1688 31.7532 20.6958 31.712 21.0183 31.9867C21.0648 32.026 23.7113 34.1953 28.4993 34.1953C33.3472 34.1953 35.9532 32.01 35.9784 31.9887C36.3004 31.712 36.8294 31.7523 37.106 32.0747C37.3911 32.4043 37.3525 32.9196 37.0209 33.2027ZM37.3 28.196C37.3 28.6373 36.9412 28.996 36.5 28.996C36.0639 28.9967 35.7007 28.6314 35.7 28.196V21C35.7 20.558 36.0581 20.2 36.4993 20.2C36.9412 20.2 37.3 20.558 37.3 21V28.196Z" fill="white"/>
</g>
<defs>
<filter id="filter0_d_1191_112" x="0.5" y="0" width="56" height="56" filterUnits="userSpaceOnUse" color-interpolation-filters="sRGB">
<feFlood flood-opacity="0" result="BackgroundImageFix"/>
<feColorMatrix in="SourceAlpha" type="matrix" values="0 0 0 0 0 0 0 0 0 0 0 0 0 0 0 0 0 0 127 0" result="hardAlpha"/>
<feOffset dy="1"/>
<feGaussianBlur stdDeviation="1"/>
<feComposite in2="hardAlpha" operator="out"/>
<feColorMatrix type="matrix" values="0 0 0 0 0.0627451 0 0 0 0 0.0941176 0 0 0 0 0.156863 0 0 0 0.05 0"/>
<feBlend mode="normal" in2="BackgroundImageFix" result="effect1_dropShadow_1191_112"/>
<feBlend mode="normal" in="SourceGraphic" in2="effect1_dropShadow_1191_112" result="shape"/>
</filter>
</defs>
</svg>
