<svg width="57" height="56" viewBox="0 0 57 56" fill="none" xmlns="http://www.w3.org/2000/svg">
<g filter="url(#filter0_d_1191_960)">
<path d="M2.5 9C2.5 4.58172 6.08172 1 10.5 1H46.5C50.9183 1 54.5 4.58172 54.5 9V45C54.5 49.4183 50.9183 53 46.5 53H10.5C6.08172 53 2.5 49.4183 2.5 45V9Z" fill="white" shape-rendering="crispEdges"/>
<path d="M3 9C3 4.85786 6.35786 1.5 10.5 1.5H46.5C50.6421 1.5 54 4.85786 54 9V45C54 49.1421 50.6421 52.5 46.5 52.5H10.5C6.35786 52.5 3 49.1421 3 45V9Z" stroke="#EAECF0" shape-rendering="crispEdges"/>
<path fill-rule="evenodd" clip-rule="evenodd" d="M13.074 46.8267L7.91495 40.3997C6.67369 38.8534 6 36.9519 6 34.9948V11.7225C6 8.79096 8.34538 6.35845 11.3711 6.15188L35.2982 4.51827C37.0365 4.39959 38.7642 4.86164 40.1921 5.82706L48.5989 11.5109C50.1037 12.5283 51 14.1915 51 15.9664V42.4248C51 45.2936 48.6938 47.6689 45.7314 47.8513L19.175 49.486C16.811 49.6315 14.526 48.6355 13.074 46.8267Z" fill="white"/>
<path d="M21.3722 23.3681V23.0634C21.3722 22.291 21.9908 21.6505 22.788 21.5973L28.595 21.2096L36.6257 33.0353V22.6562L34.5586 22.3807V22.2359C34.5586 21.4545 35.1913 20.8098 35.9987 20.7684L41.2825 20.4977V21.2581C41.2825 21.6151 41.017 21.9204 40.6532 21.9819L39.3817 22.197V39.0055L37.786 39.5543C36.4528 40.0128 34.9687 39.522 34.2055 38.3704L26.4092 26.6058V37.8344L28.8089 38.2937L28.7754 38.5163C28.6707 39.2135 28.0688 39.7408 27.3406 39.7732L21.3722 40.0388C21.2933 39.2891 21.8553 38.6183 22.6304 38.5369L23.4155 38.4544V23.4829L21.3722 23.3681Z" fill="black"/>
<path fill-rule="evenodd" clip-rule="evenodd" d="M35.5124 7.45017L11.5853 9.08378C10.1521 9.18163 9.04111 10.3339 9.04111 11.7225V34.9948C9.04111 36.2995 9.49024 37.5672 10.3177 38.5981L15.4768 45.025C16.3109 46.0642 17.6236 46.6363 18.9816 46.5527L45.538 44.918C46.8992 44.8342 47.9587 43.7429 47.9587 42.4248V15.9664C47.9587 15.1509 47.5469 14.3867 46.8555 13.9193L38.4488 8.23544C37.592 7.65619 36.5554 7.37897 35.5124 7.45017ZM12.7718 12.0855C12.439 11.8391 12.5974 11.3258 13.0154 11.2958L35.6734 9.67066C36.3953 9.61888 37.1126 9.81768 37.6965 10.2313L42.2426 13.4522C42.4152 13.5745 42.3342 13.8384 42.1206 13.8501L18.1259 15.155C17.3997 15.1945 16.683 14.9812 16.1056 14.5537L12.7718 12.0855ZM17.0005 19.2461C17.0005 18.4665 17.6302 17.8226 18.4355 17.7788L43.8047 16.3972C44.5895 16.3544 45.2502 16.958 45.2502 17.7177V40.6279C45.2502 41.406 44.6227 42.0492 43.819 42.095L18.6104 43.5293C17.737 43.579 17.0005 42.9078 17.0005 42.0622V19.2461Z" fill="black"/>
</g>
<defs>
<filter id="filter0_d_1191_960" x="0.5" y="0" width="56" height="56" filterUnits="userSpaceOnUse" color-interpolation-filters="sRGB">
<feFlood flood-opacity="0" result="BackgroundImageFix"/>
<feColorMatrix in="SourceAlpha" type="matrix" values="0 0 0 0 0 0 0 0 0 0 0 0 0 0 0 0 0 0 127 0" result="hardAlpha"/>
<feOffset dy="1"/>
<feGaussianBlur stdDeviation="1"/>
<feComposite in2="hardAlpha" operator="out"/>
<feColorMatrix type="matrix" values="0 0 0 0 0.0627451 0 0 0 0 0.0941176 0 0 0 0 0.156863 0 0 0 0.05 0"/>
<feBlend mode="normal" in2="BackgroundImageFix" result="effect1_dropShadow_1191_960"/>
<feBlend mode="normal" in="SourceGraphic" in2="effect1_dropShadow_1191_960" result="shape"/>
</filter>
</defs>
</svg>
